<svg width="23" height="22" viewBox="0 0 23 22" fill="none" xmlns="http://www.w3.org/2000/svg">
<path d="M11.696 5.33081C8.59058 5.33081 6.08569 7.83569 6.08569 10.9412C6.08569 14.0466 8.59058 16.5515 11.696 16.5515C14.8015 16.5515 17.3064 14.0466 17.3064 10.9412C17.3064 7.83569 14.8015 5.33081 11.696 5.33081ZM11.696 14.5886C9.68921 14.5886 8.04858 12.9529 8.04858 10.9412C8.04858 8.92944 9.68433 7.2937 11.696 7.2937C13.7078 7.2937 15.3435 8.92944 15.3435 10.9412C15.3435 12.9529 13.7029 14.5886 11.696 14.5886ZM18.8445 5.10132C18.8445 5.82886 18.2585 6.40991 17.5359 6.40991C16.8084 6.40991 16.2273 5.82397 16.2273 5.10132C16.2273 4.37866 16.8132 3.79272 17.5359 3.79272C18.2585 3.79272 18.8445 4.37866 18.8445 5.10132ZM22.5603 6.42944C22.4773 4.67651 22.0769 3.12378 20.7927 1.84448C19.5134 0.565185 17.9607 0.164795 16.2078 0.0769043C14.4011 -0.0256348 8.98608 -0.0256348 7.17944 0.0769043C5.4314 0.159912 3.87866 0.560303 2.59448 1.8396C1.3103 3.1189 0.914795 4.67163 0.826904 6.42456C0.724365 8.2312 0.724365 13.6462 0.826904 15.4529C0.909912 17.2058 1.3103 18.7585 2.59448 20.0378C3.87866 21.3171 5.42651 21.7175 7.17944 21.8054C8.98608 21.908 14.4011 21.908 16.2078 21.8054C17.9607 21.7224 19.5134 21.322 20.7927 20.0378C22.072 18.7585 22.4724 17.2058 22.5603 15.4529C22.6628 13.6462 22.6628 8.23608 22.5603 6.42944ZM20.2263 17.3914C19.8455 18.3484 19.1082 19.0857 18.1462 19.4714C16.7058 20.0427 13.2878 19.9109 11.696 19.9109C10.1042 19.9109 6.6814 20.0378 5.24585 19.4714C4.28882 19.0906 3.55151 18.3533 3.16577 17.3914C2.59448 15.9509 2.72632 12.533 2.72632 10.9412C2.72632 9.34937 2.59937 5.92651 3.16577 4.49097C3.54663 3.53394 4.28394 2.79663 5.24585 2.41089C6.68628 1.8396 10.1042 1.97144 11.696 1.97144C13.2878 1.97144 16.7107 1.84448 18.1462 2.41089C19.1033 2.79175 19.8406 3.52905 20.2263 4.49097C20.7976 5.9314 20.6658 9.34937 20.6658 10.9412C20.6658 12.533 20.7976 15.9558 20.2263 17.3914Z" fill="white"/>
</svg>
