<svg width="16" height="11" viewBox="0 0 16 11" fill="none" xmlns="http://www.w3.org/2000/svg">
<path d="M8.02005 6.59696H8.02347C8.14412 6.59696 8.26337 6.56097 8.35984 6.49545L8.38601 6.47817C8.39171 6.47435 8.39767 6.47088 8.40365 6.46677L8.70844 6.20755L15.9832 0.0359879C15.9681 0.0146209 15.9424 0 15.9151 0H0.0845226C0.0648886 0 0.0466665 0.00731059 0.0321567 0.0195933L7.64324 6.46879C7.73916 6.55044 7.87602 6.59696 8.02005 6.59696ZM0 0.87449V10.0225L5.45227 5.49458L0 0.87449ZM10.5534 5.5253L15.9999 10.0249V0.904915L10.5534 5.5253ZM8.82169 6.99396C8.60457 7.1771 8.32057 7.27805 8.02232 7.27805C7.72295 7.27805 7.43921 7.17769 7.22267 6.99541L5.97391 5.93663L0 10.897V10.9128C0 10.9599 0.0392678 11 0.0856467 11H15.9154C15.9609 11 15.9999 10.9599 15.9999 10.9125V10.8979L10.0312 5.96767L8.82169 6.99396Z" fill="white"/>
</svg>
