<svg width="23" height="22" viewBox="0 0 23 22" fill="none" xmlns="http://www.w3.org/2000/svg">
<path d="M22.75 2.34375V19.5312C22.75 20.8252 21.7002 21.875 20.4062 21.875H8.41406C8.89258 21.0742 9.50781 19.9219 9.75195 18.9795C9.89844 18.418 10.499 16.1279 10.499 16.1279C10.8896 16.875 12.0322 17.5049 13.248 17.5049C16.8662 17.5049 19.4688 14.1797 19.4688 10.0488C19.4688 6.08887 16.2363 3.125 12.0762 3.125C6.90039 3.125 4.15625 6.59668 4.15625 10.3809C4.15625 12.1387 5.09375 14.3262 6.58789 15.0244C6.81738 15.1318 6.93457 15.083 6.98828 14.8633C7.02734 14.6973 7.23242 13.8818 7.32031 13.5059C7.34961 13.3838 7.33496 13.2812 7.2373 13.1641C6.74414 12.5635 6.34375 11.46 6.34375 10.4297C6.34375 7.7832 8.3457 5.22461 11.7588 5.22461C14.7031 5.22461 16.7686 7.23144 16.7686 10.1025C16.7686 13.3447 15.1328 15.5908 12.999 15.5908C11.8223 15.5908 10.9434 14.6191 11.2217 13.4229C11.5586 11.9971 12.2129 10.459 12.2129 9.42871C12.2129 6.84082 8.52637 7.19727 8.52637 10.6494C8.52637 11.709 8.88281 12.4316 8.88281 12.4316C7.34961 18.916 7.12012 18.999 7.4375 21.8359L7.54492 21.875H3.21875C1.9248 21.875 0.875 20.8252 0.875 19.5312V2.34375C0.875 1.0498 1.9248 0 3.21875 0H20.4062C21.7002 0 22.75 1.0498 22.75 2.34375Z" fill="white"/>
</svg>
