<svg width="20" height="15" viewBox="0 0 20 15" fill="none" xmlns="http://www.w3.org/2000/svg">
<path fill-rule="evenodd" clip-rule="evenodd" d="M20 1.77645C19.2641 2.07831 18.473 2.27986 17.6438 2.37173C18.4911 1.90301 19.1413 1.16055 19.4478 0.277483C18.6538 0.710581 17.7761 1.02556 16.8412 1.19618C16.0939 0.459346 15.0267 0 13.8471 0C11.5813 0 9.74296 1.69583 9.74296 3.78633C9.74296 4.0835 9.77913 4.37316 9.84958 4.64971C6.43945 4.49128 3.41584 2.98388 1.39185 0.693707C1.03865 1.25336 0.836824 1.90301 0.836824 2.59765C0.836824 3.91007 1.56131 5.07062 2.66184 5.74933C1.98972 5.7287 1.35758 5.55903 0.803503 5.27498C0.803503 5.29186 0.803503 5.30592 0.803503 5.32373C0.803503 7.1583 2.21725 8.68821 4.09463 9.036C3.75095 9.12224 3.38728 9.16724 3.01409 9.16724C2.74943 9.16724 2.49238 9.14474 2.242 9.10162C2.76371 10.6043 4.27932 11.7002 6.07483 11.7311C4.6706 12.7464 2.90175 13.351 0.978675 13.351C0.647372 13.351 0.32083 13.3332 0 13.2985C1.8155 14.3719 3.97277 15 6.28998 15C13.8376 15 17.9646 9.22911 17.9646 4.22599C17.9646 4.061 17.9598 3.89882 17.9522 3.7357C18.7538 3.20136 19.4497 2.53484 20 1.77645Z" fill="white"/>
</svg>
