<svg width="22" height="22" viewBox="0 0 22 22" fill="none" xmlns="http://www.w3.org/2000/svg">
<path d="M10.9375 4.43359C7.3877 4.43359 4.50195 7.31934 4.49707 10.8691C4.49707 12.085 4.83887 13.2715 5.4834 14.292L5.63477 14.5361L4.98535 16.9092L7.42188 16.2695L7.65625 16.4111C8.64258 16.9971 9.77539 17.3096 10.9326 17.3096H10.9375C14.4824 17.3096 17.4463 14.4238 17.4463 10.874C17.4463 9.15527 16.7041 7.53906 15.4883 6.32324C14.2676 5.10254 12.6562 4.43359 10.9375 4.43359ZM14.7217 13.6328C14.5605 14.0869 13.7891 14.4971 13.418 14.5508C12.8027 14.6436 12.3242 14.5947 11.0986 14.0674C9.16016 13.2275 7.89063 11.2744 7.79297 11.1475C7.69531 11.0205 7.00195 10.0977 7.00195 9.14551C7.00195 8.19336 7.5 7.72461 7.68066 7.5293C7.85645 7.33398 8.06641 7.28516 8.19824 7.28516C8.3252 7.28516 8.45703 7.28516 8.56934 7.29004C8.68652 7.29492 8.84766 7.24609 9.00391 7.62207C9.16504 8.00781 9.55078 8.95996 9.59961 9.05762C9.64844 9.15527 9.68262 9.26758 9.61426 9.39453C9.24316 10.1367 8.84766 10.1074 9.04785 10.4492C9.79492 11.7334 10.542 12.1777 11.6797 12.749C11.875 12.8467 11.9873 12.832 12.0996 12.7002C12.2119 12.5732 12.583 12.1338 12.71 11.9434C12.8369 11.748 12.9688 11.7822 13.1445 11.8457C13.3203 11.9092 14.2725 12.3779 14.4678 12.4756C14.6631 12.5732 14.79 12.6221 14.8389 12.7002C14.8828 12.793 14.8828 13.1836 14.7217 13.6328ZM19.5312 0H2.34375C1.0498 0 0 1.0498 0 2.34375V19.5312C0 20.8252 1.0498 21.875 2.34375 21.875H19.5312C20.8252 21.875 21.875 20.8252 21.875 19.5312V2.34375C21.875 1.0498 20.8252 0 19.5312 0ZM10.9326 18.6133C9.63379 18.6133 8.35938 18.2861 7.23145 17.6709L3.125 18.75L4.22363 14.7363C3.54492 13.5645 3.18848 12.2314 3.18848 10.8643C3.19336 6.59668 6.66504 3.125 10.9326 3.125C13.0029 3.125 14.9463 3.93066 16.4111 5.39551C17.8711 6.86035 18.75 8.80371 18.75 10.874C18.75 15.1416 15.2002 18.6133 10.9326 18.6133Z" fill="white"/>
</svg>
