<svg width="26" height="42" viewBox="0 0 26 42" fill="none" xmlns="http://www.w3.org/2000/svg">
<path d="M25.615 31.0476L20.2057 23.6248H22.2796C22.8897 23.6248 23.4294 23.2147 23.6867 22.5535C23.944 21.894 23.8593 21.1377 23.4646 20.5807L18.1744 13.1252H20.1305C20.7467 13.1252 21.3019 12.6863 21.543 12.0088C21.7813 11.3419 21.6689 10.5659 21.2559 10.0335L13.7895 0.396813C13.3812 -0.132271 12.6195 -0.132271 12.2105 0.396813L4.74345 10.0335C4.33042 10.5659 4.2187 11.3419 4.45636 12.0088C4.69741 12.6863 5.25331 13.1252 5.86947 13.1252H7.82561L2.53476 20.5824C2.14136 21.1385 2.05673 21.894 2.31335 22.5543C2.57064 23.2147 3.10961 23.6248 3.72036 23.6248H5.79431L0.384968 31.0476C-0.0212915 31.6045 -0.113377 32.3674 0.143921 33.0376C0.397833 33.6979 0.956439 34.1244 1.56651 34.1244H10.8333V36.13L8.78235 40.1002C8.42213 40.973 8.94621 42 9.75128 42H16.2487C17.0538 42 17.5779 40.973 17.2176 40.1002L15.1667 36.13V34.1244H24.4335C25.0436 34.1244 25.6022 33.6979 25.8561 33.0376C26.1134 32.3674 26.0213 31.6045 25.615 31.0476Z" fill="#0C5700"/>
</svg>
