<svg width="27" height="41" viewBox="0 0 27 41" fill="none" xmlns="http://www.w3.org/2000/svg">
<path d="M13.499 12.8125C16.6072 12.8125 19.1247 9.9457 19.1247 6.40625C19.1247 2.8668 16.6072 0 13.499 0C10.3909 0 7.87339 2.8668 7.87339 6.40625C7.87339 9.9457 10.3909 12.8125 13.499 12.8125ZM9.74392 32.7359L11.5441 30.1734L7.21941 26.0734L3.9917 30.6699C3.19005 31.807 3.16895 33.4246 3.93545 34.5938L7.31083 39.7188C7.86636 40.5596 8.71021 41 9.56108 41C10.1447 41 10.7425 40.7918 11.2488 40.3594C12.4934 39.3023 12.7396 37.2924 11.8113 35.875L9.74392 32.7359ZM19.7787 26.0734L15.4539 30.1734L17.2541 32.7359L15.1867 35.875C14.2585 37.2924 14.5046 39.3023 15.7493 40.3594C16.2556 40.7918 16.8463 41 17.437 41C18.2949 41 19.1387 40.5596 19.6872 39.7188L23.0626 34.5938C23.8291 33.4246 23.808 31.807 23.0064 30.6699L19.7787 26.0734ZM26.4872 11.6113C25.5942 10.1619 23.8432 9.81758 22.5704 10.8266L19.7154 13.1088C16.0095 16.0717 10.9816 16.0717 7.2827 13.1088L4.42769 10.8346C3.15489 9.81758 1.40391 10.1699 0.510837 11.6113C-0.382233 13.0607 -0.0728226 15.0547 1.19295 16.0717L4.04796 18.3539C5.24341 19.3068 6.5373 20.0275 7.87339 20.5881V23.0625H19.1247V20.5961C20.4608 20.0355 21.7547 19.3148 22.9501 18.3619L25.8051 16.0797C27.0779 15.0547 27.3803 13.0607 26.4872 11.6113Z" fill="#0F56B3"/>
</svg>
