<svg width="80" height="55" viewBox="0 0 80 55" fill="none" xmlns="http://www.w3.org/2000/svg">
<path d="M52.4998 27.5C52.4998 30.8152 51.1829 33.9946 48.8387 36.3388C46.4945 38.683 43.315 39.9999 39.9998 39.9999C36.6847 39.9999 33.5052 38.683 31.161 36.3388C28.8168 33.9946 27.4999 30.8152 27.4999 27.5C27.4999 24.1848 28.8168 21.0054 31.161 18.6612C33.5052 16.317 36.6847 15 39.9998 15C43.315 15 46.4945 16.317 48.8387 18.6612C51.1829 21.0054 52.4998 24.1848 52.4998 27.5Z" fill="#F8F8F8" fill-opacity="0.95"/>
<path d="M0 27.4999C0 27.4999 15 0 39.9999 0C64.9998 0 79.9998 27.4999 79.9998 27.4999C79.9998 27.4999 64.9998 54.9999 39.9999 54.9999C15 54.9999 0 27.4999 0 27.4999ZM39.9999 44.9999C44.6412 44.9999 49.0924 43.1562 52.3742 39.8743C55.6561 36.5924 57.4999 32.1412 57.4999 27.4999C57.4999 22.8587 55.6561 18.4075 52.3742 15.1256C49.0924 11.8437 44.6412 9.99998 39.9999 9.99998C35.3586 9.99998 30.9074 11.8437 27.6256 15.1256C24.3437 18.4075 22.4999 22.8587 22.4999 27.4999C22.4999 32.1412 24.3437 36.5924 27.6256 39.8743C30.9074 43.1562 35.3586 44.9999 39.9999 44.9999Z" fill="#F8F8F8" fill-opacity="0.95"/>
</svg>
